<svg width="48" height="48" viewBox="0 0 48 48" fill="none" xmlns="http://www.w3.org/2000/svg">
<path d="M31.0015 21C31.0015 17.134 27.8675 14 24.0015 14C20.1355 14 17.0015 17.134 17.0015 21C17.0015 24.866 20.1355 28 24.0015 28C27.8675 28 31.0015 24.866 31.0015 21Z" stroke="#01636C" stroke-width="2" stroke-linecap="round" stroke-linejoin="round"/>
<path d="M43.9985 24C43.9985 12.9543 35.0441 3.99997 23.9985 3.99997C12.9528 3.99997 3.99854 12.9543 3.99854 24C3.99854 35.0456 12.9528 44 23.9985 44C35.0441 44 43.9985 35.0456 43.9985 24Z" stroke="#01636C" stroke-width="2" stroke-linecap="round" stroke-linejoin="round"/>
<path d="M36 40C36 33.3726 30.6274 28 24 28C17.3726 28 12 33.3726 12 40" stroke="#01636C" stroke-width="2" stroke-linecap="round" stroke-linejoin="round"/>
</svg>
