<svg width="28" height="28" viewBox="0 0 28 28" fill="none" xmlns="http://www.w3.org/2000/svg">
<path d="M25.1341 12.8863C25.4888 13.3837 25.6661 13.6324 25.6661 14.0005C25.6661 14.3686 25.4888 14.6173 25.1341 15.1146C23.5403 17.3495 19.4702 22.1671 13.9994 22.1671C8.52867 22.1671 4.45855 17.3495 2.86481 15.1146C2.51011 14.6173 2.33276 14.3686 2.33276 14.0005C2.33276 13.6324 2.51011 13.3837 2.86481 12.8863C4.45855 10.6515 8.52867 5.8338 13.9994 5.8338C19.4702 5.8338 23.5403 10.6515 25.1341 12.8863Z" stroke="#2A3648" stroke-width="2"/>
<path d="M17.4995 14.0005C17.4995 12.0674 15.9326 10.5005 13.9995 10.5005C12.0665 10.5005 10.4995 12.0674 10.4995 14.0005C10.4995 15.9335 12.0665 17.5005 13.9995 17.5005C15.9326 17.5005 17.4995 15.9335 17.4995 14.0005Z" stroke="#2A3648" stroke-width="2"/>
</svg>
