<svg width="25" height="27" viewBox="0 0 25 27" fill="none" xmlns="http://www.w3.org/2000/svg">
<path d="M0.5 0.5V26.5" stroke="#E5E5E5" stroke-linecap="round"/>
<path d="M17.416 16.4167L18.666 17.6667" stroke="#4F596B" stroke-linecap="round" stroke-linejoin="round"/>
<path d="M19.0271 19.771C18.5457 19.2896 18.5457 18.5091 19.0271 18.0277C19.5084 17.5463 20.2889 17.5463 20.7703 18.0277L22.4716 19.729C22.953 20.2104 22.953 20.9909 22.4716 21.4722C21.9902 21.9537 21.2097 21.9537 20.7283 21.4722L19.0271 19.771Z" stroke="#4F596B" stroke-linecap="round" stroke-linejoin="round"/>
<path d="M18.6667 11.8333C18.6667 8.61168 16.055 6 12.8333 6C9.61168 6 7 8.61168 7 11.8333C7 15.055 9.61168 17.6667 12.8333 17.6667C16.055 17.6667 18.6667 15.055 18.6667 11.8333Z" stroke="#4F596B" stroke-linecap="round" stroke-linejoin="round"/>
</svg>
