<svg width="20" height="20" viewBox="0 0 20 20" fill="none" xmlns="http://www.w3.org/2000/svg">
<path d="M12.9173 8.75004C12.9173 7.13921 11.6115 5.83337 10.0007 5.83337C8.38982 5.83337 7.08398 7.13921 7.08398 8.75004C7.08398 10.3609 8.38982 11.6667 10.0007 11.6667C11.6115 11.6667 12.9173 10.3609 12.9173 8.75004Z" stroke="#01636C" stroke-linecap="round" stroke-linejoin="round"/>
<path d="M18.3327 9.99996C18.3327 5.39758 14.6017 1.66663 9.99935 1.66663C5.39697 1.66663 1.66602 5.39758 1.66602 9.99996C1.66602 14.6023 5.39697 18.3333 9.99935 18.3333C14.6017 18.3333 18.3327 14.6023 18.3327 9.99996Z" stroke="#01636C" stroke-linecap="round" stroke-linejoin="round"/>
<path d="M15 16.6667C15 13.9053 12.7614 11.6667 10 11.6667C7.23857 11.6667 5 13.9053 5 16.6667" stroke="#01636C" stroke-linecap="round" stroke-linejoin="round"/>
</svg>
